<mxfile host="app.diagrams.net" agent="Mozilla/5.0 (Windows NT 10.0; Win64; x64) AppleWebKit/537.36 (KHTML, like Gecko) Chrome/139.0.0.0 Safari/537.36" version="28.1.2">
  <diagram name="Page-1" id="DuiOKUGyBfL8iRm-_9Js">
    <mxGraphModel dx="1554" dy="815" grid="1" gridSize="10" guides="1" tooltips="1" connect="1" arrows="1" fold="1" page="1" pageScale="1" pageWidth="850" pageHeight="1100" math="0" shadow="0">
      <root>
        <mxCell id="0" />
        <mxCell id="1" parent="0" />
        <mxCell id="eCiu8CXQlMq4dh-upKKG-44" value="" style="group" vertex="1" connectable="0" parent="1">
          <mxGeometry x="30" y="50" width="570" height="690" as="geometry" />
        </mxCell>
        <mxCell id="eCiu8CXQlMq4dh-upKKG-1" value="Database Schema" style="text;html=1;align=center;verticalAlign=middle;whiteSpace=wrap;rounded=0;" vertex="1" parent="eCiu8CXQlMq4dh-upKKG-44">
          <mxGeometry x="40" width="190" height="30" as="geometry" />
        </mxCell>
        <mxCell id="eCiu8CXQlMq4dh-upKKG-3" value="Email session" style="swimlane;fontStyle=0;childLayout=stackLayout;horizontal=1;startSize=30;horizontalStack=0;resizeParent=1;resizeParentMax=0;resizeLast=0;collapsible=1;marginBottom=0;whiteSpace=wrap;html=1;" vertex="1" parent="eCiu8CXQlMq4dh-upKKG-44">
          <mxGeometry x="210" y="100" width="140" height="210" as="geometry">
            <mxRectangle x="70" y="140" width="110" height="30" as="alternateBounds" />
          </mxGeometry>
        </mxCell>
        <mxCell id="eCiu8CXQlMq4dh-upKKG-4" value="esession_id" style="text;strokeColor=none;fillColor=none;align=left;verticalAlign=middle;spacingLeft=4;spacingRight=4;overflow=hidden;points=[[0,0.5],[1,0.5]];portConstraint=eastwest;rotatable=0;whiteSpace=wrap;html=1;" vertex="1" parent="eCiu8CXQlMq4dh-upKKG-3">
          <mxGeometry y="30" width="140" height="30" as="geometry" />
        </mxCell>
        <mxCell id="eCiu8CXQlMq4dh-upKKG-5" value="subject" style="text;strokeColor=none;fillColor=none;align=left;verticalAlign=middle;spacingLeft=4;spacingRight=4;overflow=hidden;points=[[0,0.5],[1,0.5]];portConstraint=eastwest;rotatable=0;whiteSpace=wrap;html=1;" vertex="1" parent="eCiu8CXQlMq4dh-upKKG-3">
          <mxGeometry y="60" width="140" height="30" as="geometry" />
        </mxCell>
        <mxCell id="eCiu8CXQlMq4dh-upKKG-6" value="sender_id" style="text;strokeColor=none;fillColor=none;align=left;verticalAlign=middle;spacingLeft=4;spacingRight=4;overflow=hidden;points=[[0,0.5],[1,0.5]];portConstraint=eastwest;rotatable=0;whiteSpace=wrap;html=1;" vertex="1" parent="eCiu8CXQlMq4dh-upKKG-3">
          <mxGeometry y="90" width="140" height="30" as="geometry" />
        </mxCell>
        <mxCell id="eCiu8CXQlMq4dh-upKKG-8" value="receiver_id" style="text;strokeColor=none;fillColor=none;align=left;verticalAlign=middle;spacingLeft=4;spacingRight=4;overflow=hidden;points=[[0,0.5],[1,0.5]];portConstraint=eastwest;rotatable=0;whiteSpace=wrap;html=1;" vertex="1" parent="eCiu8CXQlMq4dh-upKKG-3">
          <mxGeometry y="120" width="140" height="30" as="geometry" />
        </mxCell>
        <mxCell id="eCiu8CXQlMq4dh-upKKG-9" value="created_at" style="text;strokeColor=none;fillColor=none;align=left;verticalAlign=middle;spacingLeft=4;spacingRight=4;overflow=hidden;points=[[0,0.5],[1,0.5]];portConstraint=eastwest;rotatable=0;whiteSpace=wrap;html=1;" vertex="1" parent="eCiu8CXQlMq4dh-upKKG-3">
          <mxGeometry y="150" width="140" height="30" as="geometry" />
        </mxCell>
        <mxCell id="eCiu8CXQlMq4dh-upKKG-10" value="updated_at" style="text;strokeColor=none;fillColor=none;align=left;verticalAlign=middle;spacingLeft=4;spacingRight=4;overflow=hidden;points=[[0,0.5],[1,0.5]];portConstraint=eastwest;rotatable=0;whiteSpace=wrap;html=1;" vertex="1" parent="eCiu8CXQlMq4dh-upKKG-3">
          <mxGeometry y="180" width="140" height="30" as="geometry" />
        </mxCell>
        <mxCell id="eCiu8CXQlMq4dh-upKKG-11" value="Email message" style="swimlane;fontStyle=0;childLayout=stackLayout;horizontal=1;startSize=30;horizontalStack=0;resizeParent=1;resizeParentMax=0;resizeLast=0;collapsible=1;marginBottom=0;whiteSpace=wrap;html=1;" vertex="1" parent="eCiu8CXQlMq4dh-upKKG-44">
          <mxGeometry x="210" y="360" width="140" height="330" as="geometry">
            <mxRectangle x="70" y="140" width="110" height="30" as="alternateBounds" />
          </mxGeometry>
        </mxCell>
        <mxCell id="eCiu8CXQlMq4dh-upKKG-12" value="message_id" style="text;strokeColor=none;fillColor=none;align=left;verticalAlign=middle;spacingLeft=4;spacingRight=4;overflow=hidden;points=[[0,0.5],[1,0.5]];portConstraint=eastwest;rotatable=0;whiteSpace=wrap;html=1;" vertex="1" parent="eCiu8CXQlMq4dh-upKKG-11">
          <mxGeometry y="30" width="140" height="30" as="geometry" />
        </mxCell>
        <mxCell id="eCiu8CXQlMq4dh-upKKG-13" value="session_id" style="text;strokeColor=none;fillColor=none;align=left;verticalAlign=middle;spacingLeft=4;spacingRight=4;overflow=hidden;points=[[0,0.5],[1,0.5]];portConstraint=eastwest;rotatable=0;whiteSpace=wrap;html=1;" vertex="1" parent="eCiu8CXQlMq4dh-upKKG-11">
          <mxGeometry y="60" width="140" height="30" as="geometry" />
        </mxCell>
        <mxCell id="eCiu8CXQlMq4dh-upKKG-14" value="sender_id" style="text;strokeColor=none;fillColor=none;align=left;verticalAlign=middle;spacingLeft=4;spacingRight=4;overflow=hidden;points=[[0,0.5],[1,0.5]];portConstraint=eastwest;rotatable=0;whiteSpace=wrap;html=1;" vertex="1" parent="eCiu8CXQlMq4dh-upKKG-11">
          <mxGeometry y="90" width="140" height="30" as="geometry" />
        </mxCell>
        <mxCell id="eCiu8CXQlMq4dh-upKKG-15" value="receiver_id" style="text;strokeColor=none;fillColor=none;align=left;verticalAlign=middle;spacingLeft=4;spacingRight=4;overflow=hidden;points=[[0,0.5],[1,0.5]];portConstraint=eastwest;rotatable=0;whiteSpace=wrap;html=1;" vertex="1" parent="eCiu8CXQlMq4dh-upKKG-11">
          <mxGeometry y="120" width="140" height="30" as="geometry" />
        </mxCell>
        <mxCell id="eCiu8CXQlMq4dh-upKKG-16" value="message_text" style="text;strokeColor=none;fillColor=none;align=left;verticalAlign=middle;spacingLeft=4;spacingRight=4;overflow=hidden;points=[[0,0.5],[1,0.5]];portConstraint=eastwest;rotatable=0;whiteSpace=wrap;html=1;" vertex="1" parent="eCiu8CXQlMq4dh-upKKG-11">
          <mxGeometry y="150" width="140" height="30" as="geometry" />
        </mxCell>
        <mxCell id="eCiu8CXQlMq4dh-upKKG-17" value="message_file" style="text;strokeColor=none;fillColor=none;align=left;verticalAlign=middle;spacingLeft=4;spacingRight=4;overflow=hidden;points=[[0,0.5],[1,0.5]];portConstraint=eastwest;rotatable=0;whiteSpace=wrap;html=1;" vertex="1" parent="eCiu8CXQlMq4dh-upKKG-11">
          <mxGeometry y="180" width="140" height="30" as="geometry" />
        </mxCell>
        <mxCell id="eCiu8CXQlMq4dh-upKKG-18" value="file_text" style="text;strokeColor=none;fillColor=none;align=left;verticalAlign=middle;spacingLeft=4;spacingRight=4;overflow=hidden;points=[[0,0.5],[1,0.5]];portConstraint=eastwest;rotatable=0;whiteSpace=wrap;html=1;" vertex="1" parent="eCiu8CXQlMq4dh-upKKG-11">
          <mxGeometry y="210" width="140" height="30" as="geometry" />
        </mxCell>
        <mxCell id="eCiu8CXQlMq4dh-upKKG-19" value="is_draft" style="text;strokeColor=none;fillColor=none;align=left;verticalAlign=middle;spacingLeft=4;spacingRight=4;overflow=hidden;points=[[0,0.5],[1,0.5]];portConstraint=eastwest;rotatable=0;whiteSpace=wrap;html=1;" vertex="1" parent="eCiu8CXQlMq4dh-upKKG-11">
          <mxGeometry y="240" width="140" height="30" as="geometry" />
        </mxCell>
        <mxCell id="eCiu8CXQlMq4dh-upKKG-20" value="created_at" style="text;strokeColor=none;fillColor=none;align=left;verticalAlign=middle;spacingLeft=4;spacingRight=4;overflow=hidden;points=[[0,0.5],[1,0.5]];portConstraint=eastwest;rotatable=0;whiteSpace=wrap;html=1;" vertex="1" parent="eCiu8CXQlMq4dh-upKKG-11">
          <mxGeometry y="270" width="140" height="30" as="geometry" />
        </mxCell>
        <mxCell id="eCiu8CXQlMq4dh-upKKG-21" value="updated_at" style="text;strokeColor=none;fillColor=none;align=left;verticalAlign=middle;spacingLeft=4;spacingRight=4;overflow=hidden;points=[[0,0.5],[1,0.5]];portConstraint=eastwest;rotatable=0;whiteSpace=wrap;html=1;" vertex="1" parent="eCiu8CXQlMq4dh-upKKG-11">
          <mxGeometry y="300" width="140" height="30" as="geometry" />
        </mxCell>
        <mxCell id="eCiu8CXQlMq4dh-upKKG-22" value="Person" style="swimlane;fontStyle=0;childLayout=stackLayout;horizontal=1;startSize=30;horizontalStack=0;resizeParent=1;resizeParentMax=0;resizeLast=0;collapsible=1;marginBottom=0;whiteSpace=wrap;html=1;" vertex="1" parent="eCiu8CXQlMq4dh-upKKG-44">
          <mxGeometry y="310" width="140" height="210" as="geometry">
            <mxRectangle x="70" y="140" width="110" height="30" as="alternateBounds" />
          </mxGeometry>
        </mxCell>
        <mxCell id="eCiu8CXQlMq4dh-upKKG-23" value="id" style="text;strokeColor=none;fillColor=none;align=left;verticalAlign=middle;spacingLeft=4;spacingRight=4;overflow=hidden;points=[[0,0.5],[1,0.5]];portConstraint=eastwest;rotatable=0;whiteSpace=wrap;html=1;" vertex="1" parent="eCiu8CXQlMq4dh-upKKG-22">
          <mxGeometry y="30" width="140" height="30" as="geometry" />
        </mxCell>
        <mxCell id="eCiu8CXQlMq4dh-upKKG-24" value="full_name" style="text;strokeColor=none;fillColor=none;align=left;verticalAlign=middle;spacingLeft=4;spacingRight=4;overflow=hidden;points=[[0,0.5],[1,0.5]];portConstraint=eastwest;rotatable=0;whiteSpace=wrap;html=1;" vertex="1" parent="eCiu8CXQlMq4dh-upKKG-22">
          <mxGeometry y="60" width="140" height="30" as="geometry" />
        </mxCell>
        <mxCell id="eCiu8CXQlMq4dh-upKKG-25" value="email_address" style="text;strokeColor=none;fillColor=none;align=left;verticalAlign=middle;spacingLeft=4;spacingRight=4;overflow=hidden;points=[[0,0.5],[1,0.5]];portConstraint=eastwest;rotatable=0;whiteSpace=wrap;html=1;" vertex="1" parent="eCiu8CXQlMq4dh-upKKG-22">
          <mxGeometry y="90" width="140" height="30" as="geometry" />
        </mxCell>
        <mxCell id="eCiu8CXQlMq4dh-upKKG-26" value="phone_number" style="text;strokeColor=none;fillColor=none;align=left;verticalAlign=middle;spacingLeft=4;spacingRight=4;overflow=hidden;points=[[0,0.5],[1,0.5]];portConstraint=eastwest;rotatable=0;whiteSpace=wrap;html=1;" vertex="1" parent="eCiu8CXQlMq4dh-upKKG-22">
          <mxGeometry y="120" width="140" height="30" as="geometry" />
        </mxCell>
        <mxCell id="eCiu8CXQlMq4dh-upKKG-27" value="created_at" style="text;strokeColor=none;fillColor=none;align=left;verticalAlign=middle;spacingLeft=4;spacingRight=4;overflow=hidden;points=[[0,0.5],[1,0.5]];portConstraint=eastwest;rotatable=0;whiteSpace=wrap;html=1;" vertex="1" parent="eCiu8CXQlMq4dh-upKKG-22">
          <mxGeometry y="150" width="140" height="30" as="geometry" />
        </mxCell>
        <mxCell id="eCiu8CXQlMq4dh-upKKG-28" value="updated_at" style="text;strokeColor=none;fillColor=none;align=left;verticalAlign=middle;spacingLeft=4;spacingRight=4;overflow=hidden;points=[[0,0.5],[1,0.5]];portConstraint=eastwest;rotatable=0;whiteSpace=wrap;html=1;" vertex="1" parent="eCiu8CXQlMq4dh-upKKG-22">
          <mxGeometry y="180" width="140" height="30" as="geometry" />
        </mxCell>
        <mxCell id="eCiu8CXQlMq4dh-upKKG-29" value="AI session" style="swimlane;fontStyle=0;childLayout=stackLayout;horizontal=1;startSize=30;horizontalStack=0;resizeParent=1;resizeParentMax=0;resizeLast=0;collapsible=1;marginBottom=0;whiteSpace=wrap;html=1;" vertex="1" parent="eCiu8CXQlMq4dh-upKKG-44">
          <mxGeometry x="430" y="70" width="140" height="150" as="geometry">
            <mxRectangle x="70" y="140" width="110" height="30" as="alternateBounds" />
          </mxGeometry>
        </mxCell>
        <mxCell id="eCiu8CXQlMq4dh-upKKG-30" value="aisession_id" style="text;strokeColor=none;fillColor=none;align=left;verticalAlign=middle;spacingLeft=4;spacingRight=4;overflow=hidden;points=[[0,0.5],[1,0.5]];portConstraint=eastwest;rotatable=0;whiteSpace=wrap;html=1;" vertex="1" parent="eCiu8CXQlMq4dh-upKKG-29">
          <mxGeometry y="30" width="140" height="30" as="geometry" />
        </mxCell>
        <mxCell id="eCiu8CXQlMq4dh-upKKG-31" value="esession_id" style="text;strokeColor=none;fillColor=none;align=left;verticalAlign=middle;spacingLeft=4;spacingRight=4;overflow=hidden;points=[[0,0.5],[1,0.5]];portConstraint=eastwest;rotatable=0;whiteSpace=wrap;html=1;" vertex="1" parent="eCiu8CXQlMq4dh-upKKG-29">
          <mxGeometry y="60" width="140" height="30" as="geometry" />
        </mxCell>
        <mxCell id="eCiu8CXQlMq4dh-upKKG-34" value="created_at" style="text;strokeColor=none;fillColor=none;align=left;verticalAlign=middle;spacingLeft=4;spacingRight=4;overflow=hidden;points=[[0,0.5],[1,0.5]];portConstraint=eastwest;rotatable=0;whiteSpace=wrap;html=1;" vertex="1" parent="eCiu8CXQlMq4dh-upKKG-29">
          <mxGeometry y="90" width="140" height="30" as="geometry" />
        </mxCell>
        <mxCell id="eCiu8CXQlMq4dh-upKKG-35" value="updated_at" style="text;strokeColor=none;fillColor=none;align=left;verticalAlign=middle;spacingLeft=4;spacingRight=4;overflow=hidden;points=[[0,0.5],[1,0.5]];portConstraint=eastwest;rotatable=0;whiteSpace=wrap;html=1;" vertex="1" parent="eCiu8CXQlMq4dh-upKKG-29">
          <mxGeometry y="120" width="140" height="30" as="geometry" />
        </mxCell>
        <mxCell id="eCiu8CXQlMq4dh-upKKG-36" style="edgeStyle=orthogonalEdgeStyle;rounded=0;orthogonalLoop=1;jettySize=auto;html=1;exitX=1;exitY=0.5;exitDx=0;exitDy=0;entryX=0;entryY=0.5;entryDx=0;entryDy=0;" edge="1" parent="eCiu8CXQlMq4dh-upKKG-44" source="eCiu8CXQlMq4dh-upKKG-4" target="eCiu8CXQlMq4dh-upKKG-31">
          <mxGeometry relative="1" as="geometry" />
        </mxCell>
        <mxCell id="eCiu8CXQlMq4dh-upKKG-37" style="edgeStyle=orthogonalEdgeStyle;rounded=0;orthogonalLoop=1;jettySize=auto;html=1;exitX=1;exitY=0.5;exitDx=0;exitDy=0;entryX=0;entryY=0.5;entryDx=0;entryDy=0;" edge="1" parent="eCiu8CXQlMq4dh-upKKG-44" source="eCiu8CXQlMq4dh-upKKG-23" target="eCiu8CXQlMq4dh-upKKG-6">
          <mxGeometry relative="1" as="geometry" />
        </mxCell>
        <mxCell id="eCiu8CXQlMq4dh-upKKG-38" style="edgeStyle=orthogonalEdgeStyle;rounded=0;orthogonalLoop=1;jettySize=auto;html=1;exitX=1;exitY=0.5;exitDx=0;exitDy=0;entryX=0;entryY=0.5;entryDx=0;entryDy=0;" edge="1" parent="eCiu8CXQlMq4dh-upKKG-44" source="eCiu8CXQlMq4dh-upKKG-23" target="eCiu8CXQlMq4dh-upKKG-8">
          <mxGeometry relative="1" as="geometry" />
        </mxCell>
        <mxCell id="eCiu8CXQlMq4dh-upKKG-41" style="edgeStyle=orthogonalEdgeStyle;rounded=0;orthogonalLoop=1;jettySize=auto;html=1;exitX=1;exitY=0.5;exitDx=0;exitDy=0;entryX=0;entryY=0.5;entryDx=0;entryDy=0;" edge="1" parent="eCiu8CXQlMq4dh-upKKG-44" source="eCiu8CXQlMq4dh-upKKG-23" target="eCiu8CXQlMq4dh-upKKG-14">
          <mxGeometry relative="1" as="geometry" />
        </mxCell>
        <mxCell id="eCiu8CXQlMq4dh-upKKG-42" style="edgeStyle=orthogonalEdgeStyle;rounded=0;orthogonalLoop=1;jettySize=auto;html=1;exitX=1;exitY=0.5;exitDx=0;exitDy=0;entryX=0;entryY=0.5;entryDx=0;entryDy=0;" edge="1" parent="eCiu8CXQlMq4dh-upKKG-44" source="eCiu8CXQlMq4dh-upKKG-23" target="eCiu8CXQlMq4dh-upKKG-15">
          <mxGeometry relative="1" as="geometry" />
        </mxCell>
        <mxCell id="eCiu8CXQlMq4dh-upKKG-43" style="edgeStyle=orthogonalEdgeStyle;rounded=0;orthogonalLoop=1;jettySize=auto;html=1;exitX=1;exitY=0.5;exitDx=0;exitDy=0;entryX=0;entryY=0.5;entryDx=0;entryDy=0;" edge="1" parent="eCiu8CXQlMq4dh-upKKG-44" source="eCiu8CXQlMq4dh-upKKG-4" target="eCiu8CXQlMq4dh-upKKG-12">
          <mxGeometry relative="1" as="geometry">
            <Array as="points">
              <mxPoint x="370" y="145" />
              <mxPoint x="370" y="330" />
              <mxPoint x="190" y="330" />
              <mxPoint x="190" y="405" />
            </Array>
          </mxGeometry>
        </mxCell>
        <mxCell id="eCiu8CXQlMq4dh-upKKG-71" value="" style="group" vertex="1" connectable="0" parent="1">
          <mxGeometry x="730" y="160" width="630" height="570" as="geometry" />
        </mxCell>
        <mxCell id="eCiu8CXQlMq4dh-upKKG-67" value="Chat History" style="rounded=1;whiteSpace=wrap;html=1;" vertex="1" parent="eCiu8CXQlMq4dh-upKKG-71">
          <mxGeometry y="510" width="600" height="20" as="geometry" />
        </mxCell>
        <mxCell id="eCiu8CXQlMq4dh-upKKG-68" value="Session Info, Messages" style="rounded=1;whiteSpace=wrap;html=1;" vertex="1" parent="eCiu8CXQlMq4dh-upKKG-71">
          <mxGeometry y="550" width="600" height="20" as="geometry" />
        </mxCell>
        <mxCell id="eCiu8CXQlMq4dh-upKKG-69" style="edgeStyle=orthogonalEdgeStyle;rounded=0;orthogonalLoop=1;jettySize=auto;html=1;exitX=0.5;exitY=1;exitDx=0;exitDy=0;entryX=0.076;entryY=-0.053;entryDx=0;entryDy=0;entryPerimeter=0;" edge="1" parent="eCiu8CXQlMq4dh-upKKG-71" source="eCiu8CXQlMq4dh-upKKG-59" target="eCiu8CXQlMq4dh-upKKG-67">
          <mxGeometry relative="1" as="geometry" />
        </mxCell>
        <mxCell id="eCiu8CXQlMq4dh-upKKG-49" value="" style="edgeStyle=orthogonalEdgeStyle;rounded=0;orthogonalLoop=1;jettySize=auto;html=1;" edge="1" parent="eCiu8CXQlMq4dh-upKKG-71" source="eCiu8CXQlMq4dh-upKKG-45" target="eCiu8CXQlMq4dh-upKKG-48">
          <mxGeometry relative="1" as="geometry" />
        </mxCell>
        <mxCell id="eCiu8CXQlMq4dh-upKKG-45" value="triage" style="ellipse;whiteSpace=wrap;html=1;aspect=fixed;" vertex="1" parent="eCiu8CXQlMq4dh-upKKG-71">
          <mxGeometry x="130" y="180" width="80" height="80" as="geometry" />
        </mxCell>
        <mxCell id="eCiu8CXQlMq4dh-upKKG-62" style="edgeStyle=orthogonalEdgeStyle;rounded=0;orthogonalLoop=1;jettySize=auto;html=1;exitX=1;exitY=0.5;exitDx=0;exitDy=0;entryX=0;entryY=0.5;entryDx=0;entryDy=0;" edge="1" parent="eCiu8CXQlMq4dh-upKKG-71" source="eCiu8CXQlMq4dh-upKKG-46" target="eCiu8CXQlMq4dh-upKKG-61">
          <mxGeometry relative="1" as="geometry" />
        </mxCell>
        <mxCell id="eCiu8CXQlMq4dh-upKKG-46" value="Main" style="ellipse;whiteSpace=wrap;html=1;aspect=fixed;" vertex="1" parent="eCiu8CXQlMq4dh-upKKG-71">
          <mxGeometry x="420" y="180" width="80" height="80" as="geometry" />
        </mxCell>
        <mxCell id="eCiu8CXQlMq4dh-upKKG-50" style="edgeStyle=orthogonalEdgeStyle;rounded=0;orthogonalLoop=1;jettySize=auto;html=1;exitX=1;exitY=0.5;exitDx=0;exitDy=0;entryX=0;entryY=0.5;entryDx=0;entryDy=0;" edge="1" parent="eCiu8CXQlMq4dh-upKKG-71" source="eCiu8CXQlMq4dh-upKKG-48" target="eCiu8CXQlMq4dh-upKKG-46">
          <mxGeometry relative="1" as="geometry" />
        </mxCell>
        <mxCell id="eCiu8CXQlMq4dh-upKKG-51" value="No" style="edgeLabel;html=1;align=center;verticalAlign=middle;resizable=0;points=[];" vertex="1" connectable="0" parent="eCiu8CXQlMq4dh-upKKG-50">
          <mxGeometry x="-0.32" y="3" relative="1" as="geometry">
            <mxPoint as="offset" />
          </mxGeometry>
        </mxCell>
        <mxCell id="eCiu8CXQlMq4dh-upKKG-53" value="" style="edgeStyle=orthogonalEdgeStyle;rounded=0;orthogonalLoop=1;jettySize=auto;html=1;" edge="1" parent="eCiu8CXQlMq4dh-upKKG-71" source="eCiu8CXQlMq4dh-upKKG-48" target="eCiu8CXQlMq4dh-upKKG-52">
          <mxGeometry relative="1" as="geometry" />
        </mxCell>
        <mxCell id="eCiu8CXQlMq4dh-upKKG-54" value="Yes" style="edgeLabel;html=1;align=center;verticalAlign=middle;resizable=0;points=[];" vertex="1" connectable="0" parent="eCiu8CXQlMq4dh-upKKG-53">
          <mxGeometry x="-0.1671" relative="1" as="geometry">
            <mxPoint as="offset" />
          </mxGeometry>
        </mxCell>
        <mxCell id="eCiu8CXQlMq4dh-upKKG-48" value="Summarize?" style="rhombus;whiteSpace=wrap;html=1;" vertex="1" parent="eCiu8CXQlMq4dh-upKKG-71">
          <mxGeometry x="270" y="175" width="90" height="90" as="geometry" />
        </mxCell>
        <mxCell id="eCiu8CXQlMq4dh-upKKG-63" style="edgeStyle=orthogonalEdgeStyle;rounded=0;orthogonalLoop=1;jettySize=auto;html=1;exitX=1;exitY=0.5;exitDx=0;exitDy=0;entryX=0.5;entryY=1;entryDx=0;entryDy=0;" edge="1" parent="eCiu8CXQlMq4dh-upKKG-71" source="eCiu8CXQlMq4dh-upKKG-52" target="eCiu8CXQlMq4dh-upKKG-61">
          <mxGeometry relative="1" as="geometry" />
        </mxCell>
        <mxCell id="eCiu8CXQlMq4dh-upKKG-52" value="Summarizer" style="ellipse;whiteSpace=wrap;html=1;" vertex="1" parent="eCiu8CXQlMq4dh-upKKG-71">
          <mxGeometry x="275" y="350" width="80" height="80" as="geometry" />
        </mxCell>
        <mxCell id="eCiu8CXQlMq4dh-upKKG-55" value="ToolNode" style="ellipse;whiteSpace=wrap;html=1;" vertex="1" parent="eCiu8CXQlMq4dh-upKKG-71">
          <mxGeometry x="420" y="20" width="80" height="80" as="geometry" />
        </mxCell>
        <mxCell id="eCiu8CXQlMq4dh-upKKG-57" value="" style="endArrow=classic;startArrow=classic;html=1;rounded=0;entryX=0.5;entryY=1;entryDx=0;entryDy=0;exitX=0.5;exitY=0;exitDx=0;exitDy=0;" edge="1" parent="eCiu8CXQlMq4dh-upKKG-71" source="eCiu8CXQlMq4dh-upKKG-46" target="eCiu8CXQlMq4dh-upKKG-55">
          <mxGeometry width="50" height="50" relative="1" as="geometry">
            <mxPoint x="-220" y="280" as="sourcePoint" />
            <mxPoint x="-170" y="230" as="targetPoint" />
          </mxGeometry>
        </mxCell>
        <mxCell id="eCiu8CXQlMq4dh-upKKG-58" value="Sox - Email Assistant Architecture" style="text;html=1;align=center;verticalAlign=middle;whiteSpace=wrap;rounded=0;" vertex="1" parent="eCiu8CXQlMq4dh-upKKG-71">
          <mxGeometry x="40" width="190" height="30" as="geometry" />
        </mxCell>
        <mxCell id="eCiu8CXQlMq4dh-upKKG-60" style="edgeStyle=orthogonalEdgeStyle;rounded=0;orthogonalLoop=1;jettySize=auto;html=1;exitX=1;exitY=0.5;exitDx=0;exitDy=0;entryX=0;entryY=0.5;entryDx=0;entryDy=0;" edge="1" parent="eCiu8CXQlMq4dh-upKKG-71" source="eCiu8CXQlMq4dh-upKKG-59" target="eCiu8CXQlMq4dh-upKKG-45">
          <mxGeometry relative="1" as="geometry" />
        </mxCell>
        <mxCell id="eCiu8CXQlMq4dh-upKKG-59" value="START" style="rounded=0;whiteSpace=wrap;html=1;" vertex="1" parent="eCiu8CXQlMq4dh-upKKG-71">
          <mxGeometry x="10" y="200" width="70" height="40" as="geometry" />
        </mxCell>
        <mxCell id="eCiu8CXQlMq4dh-upKKG-61" value="END" style="rounded=0;whiteSpace=wrap;html=1;" vertex="1" parent="eCiu8CXQlMq4dh-upKKG-71">
          <mxGeometry x="560" y="200" width="70" height="40" as="geometry" />
        </mxCell>
        <mxCell id="eCiu8CXQlMq4dh-upKKG-70" style="edgeStyle=orthogonalEdgeStyle;rounded=0;orthogonalLoop=1;jettySize=auto;html=1;entryX=0.033;entryY=0.027;entryDx=0;entryDy=0;entryPerimeter=0;" edge="1" parent="eCiu8CXQlMq4dh-upKKG-71" target="eCiu8CXQlMq4dh-upKKG-68">
          <mxGeometry relative="1" as="geometry">
            <mxPoint x="20" y="240" as="sourcePoint" />
            <mxPoint x="20" y="438" as="targetPoint" />
          </mxGeometry>
        </mxCell>
      </root>
    </mxGraphModel>
  </diagram>
</mxfile>
